<?xml version="1.0" standalone="no"?>
<!DOCTYPE svg PUBLIC "-//W3C//DTD SVG 20010904//EN"
 "http://www.w3.org/TR/2001/REC-SVG-20010904/DTD/svg10.dtd">
<svg version="1.0" xmlns="http://www.w3.org/2000/svg"
 width="840.000000pt" height="859.000000pt" viewBox="0 0 840.000000 859.000000"
 preserveAspectRatio="xMidYMid meet">

<g transform="translate(0.000000,859.000000) scale(0.100000,-0.100000)"
fill="#000000" stroke="none">
<path d="M1620 8241 c-105 -28 -277 -106 -393 -178 -157 -99 -451 -338 -607
-493 -286 -285 -476 -596 -551 -905 -26 -107 -35 -292 -20 -392 92 -584 629
-1607 1320 -2513 700 -918 1424 -1594 2406 -2245 952 -631 1955 -1095 2542
-1175 115 -16 349 -8 452 14 240 53 515 189 757 377 229 177 411 351 553 529
194 243 284 434 298 634 13 187 -70 324 -345 572 -469 424 -1318 1006 -1557
1069 -72 18 -142 19 -216 1 -139 -32 -228 -121 -381 -376 -41 -69 -123 -219
-183 -335 -139 -269 -170 -318 -259 -403 -83 -78 -199 -143 -293 -162 -76 -16
-204 -8 -274 17 -93 34 -431 234 -715 424 -409 274 -724 539 -1125 945 -266
271 -400 423 -568 649 -151 201 -309 468 -367 620 -67 174 -11 415 124 537 57
51 159 102 381 192 188 77 226 95 386 189 182 106 224 135 293 203 73 73 103
133 110 220 7 88 -26 186 -136 409 -259 525 -622 1052 -885 1288 -148 132
-342 251 -476 291 -70 21 -188 20 -271 -3z"/>
</g>
</svg>
