<?xml version="1.0" standalone="no"?>
<!DOCTYPE svg PUBLIC "-//W3C//DTD SVG 20010904//EN"
 "http://www.w3.org/TR/2001/REC-SVG-20010904/DTD/svg10.dtd">
<svg version="1.0" xmlns="http://www.w3.org/2000/svg"
 width="216.000000pt" height="233.000000pt" viewBox="0 0 216.000000 233.000000"
 preserveAspectRatio="xMidYMid meet">

<g transform="translate(0.000000,233.000000) scale(0.100000,-0.100000)"
fill="#000000" stroke="none">
<path d="M310 2210 c-81 -53 -180 -152 -210 -210 -21 -40 -24 -58 -23 -165 4
-540 300 -1103 758 -1440 247 -181 549 -295 827 -312 90 -6 100 -4 150 20 122
60 262 204 274 283 7 46 -13 120 -49 186 -26 47 -122 99 -287 156 -184 63
-210 67 -262 44 -24 -10 -79 -49 -123 -86 -53 -44 -88 -66 -106 -66 -54 0
-238 140 -394 301 -106 110 -201 242 -266 371 -57 113 -55 122 44 218 117 112
124 127 109 235 -18 126 -68 312 -99 374 -39 76 -118 124 -212 129 -63 4 -69
2 -131 -38z"/>
</g>
</svg>
