<?xml version="1.0" standalone="no"?>
<!DOCTYPE svg PUBLIC "-//W3C//DTD SVG 20010904//EN"
 "http://www.w3.org/TR/2001/REC-SVG-20010904/DTD/svg10.dtd">
<svg version="1.0" xmlns="http://www.w3.org/2000/svg"
 width="225.000000pt" height="225.000000pt" viewBox="0 0 225.000000 225.000000"
 preserveAspectRatio="xMidYMid meet">

<g transform="translate(0.000000,225.000000) scale(0.100000,-0.100000)"
fill="#000000" stroke="none">
<path d="M292 2191 c-161 -83 -221 -147 -263 -282 -86 -277 49 -807 317 -1241
232 -378 534 -641 762 -664 81 -9 146 8 279 71 l115 54 -30 53 c-16 29 -89
170 -162 313 -73 143 -135 262 -137 264 -2 3 -52 -19 -112 -48 -122 -59 -142
-60 -215 -12 -90 59 -227 260 -296 435 -61 151 -75 291 -36 351 12 18 54 45
121 77 l104 49 -63 122 c-35 67 -104 203 -154 302 -50 99 -97 188 -104 197
-12 16 -22 12 -126 -41z"/>
<path d="M1173 1367 c-31 -29 -37 -41 -40 -88 -7 -97 53 -156 151 -146 41 4
55 10 83 41 28 31 33 43 33 87 0 91 -48 139 -139 139 -44 0 -56 -5 -88 -33z"/>
<path d="M1606 1379 c-104 -82 -52 -249 77 -249 60 0 103 26 127 74 11 23 20
52 20 65 0 36 -38 99 -70 116 -43 22 -122 20 -154 -6z"/>
<path d="M2032 1380 c-57 -35 -77 -111 -45 -177 46 -98 200 -97 247 1 20 43
20 79 -1 123 -33 70 -131 96 -201 53z"/>
</g>
</svg>
