<?xml version="1.0" standalone="no"?>
<!DOCTYPE svg PUBLIC "-//W3C//DTD SVG 20010904//EN"
 "http://www.w3.org/TR/2001/REC-SVG-20010904/DTD/svg10.dtd">
<svg version="1.0" xmlns="http://www.w3.org/2000/svg"
 width="222.000000pt" height="227.000000pt" viewBox="0 0 222.000000 227.000000"
 preserveAspectRatio="xMidYMid meet">

<g transform="translate(0.000000,227.000000) scale(0.100000,-0.100000)"
fill="#000000" stroke="none">
<path d="M348 2241 c-105 -41 -256 -176 -318 -284 -29 -51 -30 -55 -30 -192 0
-114 4 -158 24 -241 128 -525 624 -1104 1171 -1365 197 -94 383 -142 555 -143
101 -1 107 0 170 34 79 41 210 170 260 255 31 52 35 69 38 140 l4 81 -40 50
c-111 141 -398 348 -529 383 -34 9 -49 8 -82 -5 -44 -17 -72 -51 -184 -222
-53 -79 -73 -102 -91 -102 -60 0 -303 176 -434 314 -132 139 -273 353 -258
392 3 7 63 52 133 98 223 147 237 177 158 335 -88 174 -301 428 -397 474 -46
22 -91 21 -150 -2z m202 -188 c60 -61 125 -141 173 -213 84 -127 110 -180 100
-206 -3 -9 -63 -54 -132 -100 -142 -94 -148 -98 -179 -138 -33 -43 -29 -93 17
-184 113 -224 358 -482 590 -622 111 -66 170 -85 216 -70 47 16 81 54 178 201
59 89 88 125 104 127 86 12 503 -316 503 -396 0 -72 -160 -261 -264 -312 -44
-21 -57 -22 -140 -16 -460 32 -1006 402 -1349 913 -68 103 -165 290 -201 391
-37 103 -66 257 -66 349 0 68 4 85 29 128 57 99 238 245 305 245 11 0 58 -40
116 -97z"/>
</g>
</svg>
